<?xml version="1.0" standalone="no"?>
<!DOCTYPE svg PUBLIC "-//W3C//DTD SVG 20010904//EN"
 "http://www.w3.org/TR/2001/REC-SVG-20010904/DTD/svg10.dtd">
<svg version="1.0" xmlns="http://www.w3.org/2000/svg"
 width="1500.000000pt" height="1500.000000pt" viewBox="0 0 1500.000000 1500.000000"
 preserveAspectRatio="xMidYMid meet">

<g transform="translate(0.000000,1500.000000) scale(0.100000,-0.100000)"
fill="#000000" stroke="none">
<path d="M7395 8481 l-18 -60 27 -31 c31 -37 34 -89 10 -149 -20 -50 -8 -100
47 -194 42 -70 140 -182 193 -220 l31 -22 -31 40 c-79 101 -91 152 -54 234 26
56 25 75 -6 141 -37 78 -37 130 0 169 l29 31 -18 60 c-10 33 -21 60 -25 60 -4
0 -10 -13 -13 -29 -4 -19 -17 -34 -38 -45 -28 -14 -34 -14 -60 0 -19 10 -32
25 -36 44 -3 17 -9 30 -13 30 -4 0 -15 -27 -25 -59z"/>
<path d="M7405 8095 c27 -131 16 -181 -57 -261 -40 -43 -48 -58 -39 -67 16
-16 348 -17 374 -1 16 9 10 17 -53 64 -80 59 -142 132 -196 230 -24 45 -33 56
-29 35z"/>
<path d="M4420 7915 l0 -25 1335 0 1335 0 0 25 0 25 -1335 0 -1335 0 0 -25z"/>
<path d="M7910 7915 l0 -25 1335 0 1335 0 0 25 0 25 -1335 0 -1335 0 0 -25z"/>
<path d="M4420 7805 l0 -25 1335 0 1335 0 0 25 0 25 -1335 0 -1335 0 0 -25z"/>
<path d="M7910 7805 l0 -25 1335 0 1335 0 0 25 0 25 -1335 0 -1335 0 0 -25z"/>
<path d="M4462 7591 c-18 -5 -34 -10 -35 -12 -1 -2 0 -134 3 -293 5 -314 6
-317 61 -303 24 6 24 6 21 127 l-4 120 49 0 c27 0 72 7 100 15 94 28 136 81
137 175 2 113 -65 167 -215 175 -46 2 -99 0 -117 -4z m187 -45 c42 -22 61 -64
61 -133 0 -99 -54 -153 -154 -153 l-46 0 0 156 0 157 54 -6 c30 -3 68 -13 85
-21z"/>
<path d="M6057 7591 c-17 -6 -18 -25 -17 -285 0 -168 5 -286 11 -297 9 -18 21
-19 157 -17 138 3 147 4 150 23 4 37 -11 47 -59 36 -24 -5 -74 -13 -111 -16
l-68 -7 0 268 c0 148 -4 274 -8 280 -11 16 -35 22 -55 15z"/>
<path d="M7745 7588 c-26 -15 -35 -28 -35 -54 0 -26 30 -54 57 -54 19 0 20 3
10 29 -15 41 3 61 57 61 70 0 68 10 64 -261 -3 -214 -5 -248 -21 -272 -13 -20
-26 -27 -51 -27 -42 0 -66 26 -66 73 0 33 -3 37 -25 37 -55 0 -57 -87 -2 -121
44 -26 131 -26 175 1 56 34 60 59 64 341 l3 254 -105 2 c-64 2 -113 -2 -125
-9z"/>
<path d="M9446 7581 c-17 -7 -18 -22 -17 -286 2 -181 6 -284 13 -292 8 -10 51
-13 163 -13 161 0 174 4 158 46 -5 14 -15 15 -57 10 -28 -4 -83 -9 -122 -13
l-71 -6 -6 33 c-4 18 -7 75 -7 126 l0 94 105 0 c98 0 105 1 105 20 0 18 -8 20
-102 22 l-103 3 -3 113 c-2 102 -1 112 15 112 28 0 186 -20 206 -26 12 -4 20
2 26 18 17 45 8 48 -143 47 -77 0 -149 -4 -160 -8z"/>
<path d="M5412 7528 c-6 -6 -12 -31 -12 -55 0 -39 -2 -43 -25 -43 -14 0 -29
-8 -35 -20 -10 -18 -8 -20 25 -20 l35 0 0 -170 c0 -214 10 -240 91 -240 43 0
69 17 69 44 0 20 -4 22 -32 18 -52 -8 -58 10 -58 189 l0 158 52 3 c41 2 54 7
56 21 3 14 -4 17 -47 17 l-50 0 -3 53 c-3 47 -5 52 -28 55 -14 2 -31 -3 -38
-10z"/>
<path d="M10407 7534 c-4 -4 -7 -29 -7 -56 0 -41 -3 -48 -19 -48 -30 0 -51
-11 -51 -26 0 -9 12 -14 35 -14 l35 0 0 -180 c0 -179 0 -181 25 -205 42 -43
135 -29 135 19 0 19 -4 22 -30 18 -56 -8 -60 3 -60 184 l0 163 52 3 c41 2 54
7 56 21 3 14 -5 17 -52 17 l-55 0 2 53 c2 51 2 52 -28 55 -17 2 -34 0 -38 -4z"/>
<path d="M4995 7431 c-69 -18 -95 -45 -95 -100 0 -37 31 -71 63 -71 33 0 37 7
21 38 -20 39 -17 60 11 87 26 27 65 32 110 15 32 -12 55 -64 55 -125 l0 -45
-48 0 c-76 0 -151 -27 -194 -70 -32 -32 -38 -44 -38 -80 0 -83 83 -124 173
-86 18 7 52 35 75 61 l42 48 0 -37 c0 -70 70 -109 121 -68 29 24 20 51 -15 45
-32 -6 -34 4 -38 167 -4 141 -17 178 -70 206 -36 19 -129 27 -173 15z m167
-251 c-6 -41 -45 -103 -81 -127 -63 -42 -121 -21 -121 45 0 61 81 113 170 109
31 -2 35 -5 32 -27z"/>
<path d="M6547 7426 c-76 -28 -117 -93 -125 -196 -5 -82 10 -140 51 -187 40
-46 82 -63 152 -63 90 0 155 42 155 102 l0 22 -16 -22 c-33 -48 -128 -68 -189
-40 -31 14 -61 61 -70 109 l-7 36 85 0 c114 0 175 28 196 89 30 87 -26 152
-137 160 -35 3 -72 -1 -95 -10z m130 -31 c48 -34 36 -133 -19 -161 -32 -17
-141 -24 -154 -11 -5 4 -3 33 4 65 20 98 105 152 169 107z"/>
<path d="M6992 7427 c-87 -33 -126 -111 -121 -239 3 -72 8 -91 32 -127 67
-101 242 -109 316 -15 32 41 44 93 39 180 -5 96 -27 146 -79 181 -45 29 -136
39 -187 20z m135 -41 c38 -32 53 -84 53 -185 0 -130 -37 -191 -116 -191 -50 0
-88 33 -104 89 -14 49 -13 175 2 223 15 50 59 88 103 88 21 0 44 -9 62 -24z"/>
<path d="M8221 7428 c-84 -29 -139 -134 -128 -249 6 -74 32 -124 80 -163 33
-27 48 -31 110 -34 85 -4 131 15 160 65 26 45 12 59 -22 21 -25 -28 -36 -32
-92 -36 -54 -3 -68 -1 -92 18 -31 25 -51 60 -60 106 l-6 32 88 0 c68 0 96 4
127 20 52 26 65 43 71 90 7 49 -17 96 -59 118 -40 20 -133 27 -177 12z m134
-43 c45 -44 25 -130 -35 -155 -33 -14 -135 -19 -146 -7 -4 4 -1 33 6 64 24
108 115 159 175 98z"/>
<path d="M8535 7424 c-21 -21 -15 -50 9 -46 11 2 23 -2 27 -10 5 -7 9 -92 9
-189 0 -190 4 -204 52 -197 22 3 22 5 23 148 0 128 3 151 22 192 37 81 120
102 160 41 15 -23 19 -55 21 -193 3 -96 8 -170 15 -178 5 -7 22 -12 36 -10
l26 3 -3 165 c-2 91 -9 182 -15 203 -28 98 -162 116 -236 32 -36 -42 -41 -43
-41 -10 0 53 -69 85 -105 49z"/>
<path d="M9858 7429 c-10 -5 -18 -20 -18 -33 0 -17 6 -22 23 -22 22 1 22 0 27
-186 3 -119 9 -191 16 -198 6 -6 24 -10 40 -8 l28 3 -3 131 c-3 154 8 205 54
251 40 40 73 42 112 9 l28 -24 5 -176 c3 -110 9 -179 16 -186 6 -7 24 -10 40
-8 l28 3 -3 155 c-3 181 -12 228 -53 267 -25 24 -37 28 -86 28 -65 -1 -104
-21 -133 -70 l-19 -30 0 28 c0 32 -40 77 -67 77 -10 0 -26 -5 -35 -11z"/>
<path d="M5660 7210 c0 -19 7 -20 130 -20 123 0 130 1 130 20 0 19 -7 20 -130
20 -123 0 -130 -1 -130 -20z"/>
<path d="M7350 7210 c0 -19 7 -20 130 -20 123 0 130 1 130 20 0 19 -7 20 -130
20 -123 0 -130 -1 -130 -20z"/>
<path d="M9040 7210 c0 -19 7 -20 130 -20 123 0 130 1 130 20 0 19 -7 20 -130
20 -123 0 -130 -1 -130 -20z"/>
<path d="M6697 6824 c-4 -4 -7 -65 -7 -134 0 -134 7 -156 46 -148 22 4 31 28
10 28 -20 0 -20 1 -21 139 0 106 -7 135 -28 115z"/>
<path d="M6905 6818 c-3 -8 -4 -72 -3 -143 3 -116 5 -130 21 -133 16 -3 17 1
12 31 -6 29 -3 37 13 46 29 16 29 15 52 -29 23 -45 45 -59 63 -41 9 10 8 15
-6 22 -9 6 -23 22 -31 37 -13 25 -12 30 10 55 30 35 30 51 2 71 -31 22 -41 20
-78 -11 l-32 -27 3 64 c3 44 0 64 -8 67 -7 3 -15 -2 -18 -9z m110 -99 c14 -22
-5 -55 -41 -72 -20 -10 -38 -17 -39 -15 -2 2 -1 15 2 30 9 48 61 86 78 57z"/>
<path d="M5628 6814 c-10 -9 -11 -189 -2 -233 6 -30 8 -31 65 -31 46 0 63 5
84 23 51 43 51 165 2 215 -21 20 -38 27 -84 30 -32 2 -61 0 -65 -4z m127 -37
c35 -54 26 -185 -15 -207 -10 -5 -32 -10 -49 -10 l-31 0 0 120 0 120 40 0 c30
0 43 -5 55 -23z"/>
<path d="M6800 6800 c0 -15 5 -20 18 -18 9 2 17 10 17 18 0 8 -8 16 -17 18
-13 2 -18 -3 -18 -18z"/>
<path d="M9190 6801 c0 -15 6 -21 21 -21 25 0 22 33 -4 38 -12 2 -17 -3 -17
-17z"/>
<path d="M9300 6765 c0 -16 -6 -25 -15 -25 -8 0 -15 -4 -15 -10 0 -5 7 -10 15
-10 12 0 15 -15 15 -79 0 -82 11 -106 46 -99 26 5 29 28 5 28 -19 0 -21 6 -21
75 0 68 2 75 19 75 11 0 23 5 26 10 4 6 -5 10 -19 10 -21 0 -26 5 -26 25 0 16
-6 25 -15 25 -9 0 -15 -9 -15 -25z"/>
<path d="M5854 6738 c-4 -6 -2 -14 4 -16 8 -2 12 -30 12 -77 0 -82 6 -105 26
-105 11 0 14 18 14 78 0 86 14 120 45 109 11 -5 15 -14 12 -28 -4 -15 -1 -19
11 -17 25 5 27 45 3 57 -22 12 -50 5 -68 -18 -11 -14 -12 -14 -13 0 0 9 -7 20
-16 23 -21 8 -22 8 -30 -6z"/>
<path d="M6084 6740 c-69 -28 -73 -159 -7 -189 33 -15 65 -14 91 5 33 23 27
36 -8 16 -27 -15 -32 -16 -57 -2 -16 9 -29 25 -31 36 -3 18 3 22 42 26 26 3
53 11 61 18 19 15 20 64 2 79 -20 16 -69 22 -93 11z m71 -30 c11 -33 -12 -60
-50 -60 -29 0 -35 4 -35 21 0 36 19 59 50 59 20 0 31 -6 35 -20z"/>
<path d="M6263 6740 c-27 -11 -38 -43 -23 -70 6 -11 33 -31 61 -46 33 -16 49
-30 47 -41 -7 -38 -85 -32 -95 7 -7 28 -23 25 -23 -5 0 -46 91 -64 131 -24 32
32 21 60 -35 90 -52 29 -67 45 -59 66 8 21 61 16 73 -7 14 -26 30 -26 30 0 0
33 -59 49 -107 30z"/>
<path d="M6442 6734 c-24 -17 -29 -57 -9 -74 6 -6 30 -21 52 -34 47 -25 57
-52 24 -65 -32 -11 -59 -2 -71 25 -12 26 -28 23 -28 -6 0 -39 85 -55 128 -24
40 27 29 60 -34 100 -63 40 -69 67 -17 72 24 2 33 -1 38 -17 8 -27 25 -27 25
-1 0 36 -69 52 -108 24z"/>
<path d="M6805 6738 c-3 -8 -5 -55 -3 -104 3 -78 5 -89 22 -92 17 -4 18 2 14
92 -4 91 -19 140 -33 104z"/>
<path d="M7154 6740 c-69 -28 -73 -159 -7 -189 33 -15 65 -14 91 5 33 23 27
36 -8 16 -27 -15 -32 -16 -57 -2 -16 9 -29 25 -31 36 -3 18 3 22 42 26 26 3
53 11 61 18 19 15 20 64 2 79 -20 16 -69 22 -93 11z m70 -26 c9 -24 8 -31 -10
-48 -8 -9 -31 -16 -49 -16 -32 0 -33 1 -25 30 5 16 11 34 15 40 10 16 62 12
69 -6z"/>
<path d="M7398 6745 c-12 -13 4 -170 20 -187 21 -24 57 -23 84 4 l21 21 -6
-42 c-7 -52 -22 -71 -57 -71 -27 0 -46 22 -34 41 3 5 -2 9 -11 9 -21 0 -30
-27 -15 -45 18 -22 92 -19 121 4 23 18 24 25 24 143 0 101 -3 123 -15 123 -11
0 -13 -12 -11 -53 3 -65 -14 -119 -40 -127 -36 -12 -48 11 -51 98 -3 72 -13
99 -30 82z"/>
<path d="M7651 6739 c-38 -15 -50 -39 -51 -97 0 -67 29 -102 85 -102 56 0 85
35 85 102 -1 59 -13 82 -54 98 -32 12 -33 12 -65 -1z m77 -39 c30 -58 -13
-171 -56 -144 -9 6 -23 22 -30 35 -15 28 -10 102 8 125 19 22 62 14 78 -16z"/>
<path d="M7827 6743 c-12 -11 -7 -147 6 -173 17 -34 68 -39 95 -10 l19 21 6
-21 c3 -11 12 -20 20 -20 20 0 35 22 19 28 -8 2 -12 32 -12 87 0 62 -4 84 -14
88 -22 9 -26 -2 -26 -78 0 -77 -18 -111 -57 -103 -15 3 -18 15 -21 85 -3 76
-17 115 -35 96z"/>
<path d="M8114 6739 c-4 -7 1 -16 10 -21 13 -7 16 -26 16 -93 0 -69 3 -85 15
-85 12 0 15 14 15 68 0 81 16 117 50 117 21 0 26 -6 32 -40 4 -22 7 -64 7 -92
1 -40 5 -53 16 -53 12 0 15 15 15 74 0 58 4 79 19 97 16 20 23 22 38 13 14 -9
19 -28 23 -95 4 -69 8 -84 23 -87 15 -3 17 5 17 67 0 84 -11 117 -45 133 -22
10 -30 8 -55 -10 -26 -20 -30 -20 -38 -5 -13 22 -71 22 -87 0 -15 -21 -25 -22
-25 -3 0 8 -7 17 -16 20 -21 8 -22 8 -30 -5z"/>
<path d="M8504 6736 c-61 -27 -68 -141 -11 -181 38 -26 107 -16 120 19 5 12 2
12 -21 0 -37 -19 -58 -18 -82 6 -32 32 -25 47 26 53 82 9 113 76 49 105 -32
15 -42 15 -81 -2z m74 -34 c5 -33 -15 -52 -54 -52 -39 0 -45 20 -18 58 21 31
68 27 72 -6z"/>
<path d="M8694 6740 c-29 -11 -37 -26 -29 -50 10 -31 41 -26 40 8 0 21 5 28
23 30 32 5 52 -15 52 -49 0 -26 -4 -29 -30 -29 -62 0 -110 -43 -94 -84 9 -23
53 -32 83 -15 35 20 41 43 6 25 -32 -17 -55 -11 -55 14 0 25 32 50 64 50 24 0
27 -3 23 -22 -7 -25 18 -78 37 -78 7 0 19 7 26 15 10 12 10 15 -4 15 -12 0
-16 10 -16 43 0 68 -18 117 -46 127 -30 12 -52 12 -80 0z"/>
<path d="M8869 6739 c-12 -8 -11 -11 4 -20 14 -8 17 -25 17 -94 0 -69 3 -85
15 -85 12 0 15 14 15 65 0 72 14 112 43 121 31 10 42 -12 47 -99 4 -65 8 -82
21 -85 15 -3 16 7 12 85 -4 73 -8 91 -26 106 -23 20 -60 16 -89 -10 -16 -14
-18 -14 -18 -1 0 20 -22 29 -41 17z"/>
<path d="M9195 6738 c-3 -8 -5 -55 -3 -104 3 -76 6 -89 21 -92 16 -3 17 5 15
99 -2 71 -7 104 -15 107 -7 2 -15 -3 -18 -10z"/>
</g>
</svg>
