<?xml version="1.0" standalone="no"?>
<!DOCTYPE svg PUBLIC "-//W3C//DTD SVG 20010904//EN"
 "http://www.w3.org/TR/2001/REC-SVG-20010904/DTD/svg10.dtd">
<svg version="1.0" xmlns="http://www.w3.org/2000/svg"
 width="752.000000pt" height="751.000000pt" viewBox="0 0 752.000000 751.000000"
 preserveAspectRatio="xMidYMid meet">

<g transform="translate(0.000000,751.000000) scale(0.100000,-0.100000)"
fill="#000000" stroke="none">
<path d="M10 3745 l0 -3745 3750 0 3750 0 0 3745 0 3745 -3750 0 -3750 0 0
-3745z m3905 2305 c383 -31 721 -137 1026 -320 381 -229 687 -558 884 -950 66
-131 69 -140 45 -140 -14 0 -31 25 -69 103 -71 147 -129 241 -231 376 -285
378 -693 665 -1135 799 -262 79 -381 96 -675 96 -298 0 -417 -17 -685 -99
-583 -179 -1083 -611 -1356 -1172 -38 -78 -55 -103 -69 -103 -24 0 -21 9 45
140 258 515 700 914 1241 1123 194 75 440 130 657 146 151 12 182 12 322 1z
m-205 -1549 c0 -10 11 -26 25 -35 23 -15 27 -15 50 0 14 9 25 25 25 35 0 34
17 20 30 -25 11 -40 10 -46 -10 -74 -25 -34 -24 -58 6 -134 17 -45 17 -48 -1
-101 -22 -65 -17 -90 30 -151 19 -25 32 -46 29 -46 -4 0 -1 -6 5 -14 9 -11 8
-15 -5 -20 -27 -11 -272 -7 -279 4 -4 6 9 28 29 50 46 51 63 108 50 163 -13
50 -10 106 7 169 12 45 12 50 -10 79 -21 29 -22 34 -11 75 13 45 30 59 30 25z
m-252 -448 c-3 -17 -60 -18 -1006 -21 -997 -2 -1002 -2 -1002 18 0 20 6 20
1006 20 952 0 1005 -1 1002 -17z m2612 -3 c0 -20 -5 -20 -1002 -18 -946 3
-1003 4 -1006 21 -3 16 50 17 1002 17 1000 0 1006 0 1006 -20z m-2615 -85 c0
-20 -8 -20 -1002 -23 l-1003 -2 0 25 0 25 1003 -2 c994 -3 1002 -3 1002 -23z
m2615 0 l0 -25 -999 0 c-686 0 -1002 3 -1006 10 -4 6 -4 17 -1 25 5 13 140 15
1006 15 l1000 0 0 -25z m-4405 -172 c17 -9 38 -25 47 -37 24 -29 24 -112 -1
-152 -19 -32 -74 -64 -109 -64 -11 0 -34 -3 -51 -6 l-31 -6 0 -89 c0 -88 0
-89 -24 -89 -14 0 -27 3 -30 8 -2 4 -6 106 -7 227 l-3 220 40 6 c54 8 133 -1
169 -18z m2396 17 l59 0 0 -172 c0 -191 -8 -237 -47 -268 -38 -30 -116 -28
-148 5 -28 27 -32 57 -10 75 20 17 45 6 39 -17 -3 -11 3 -30 14 -43 14 -18 25
-22 45 -16 38 9 47 55 47 249 l0 167 -37 0 c-53 0 -72 -14 -56 -39 16 -25 1
-36 -27 -21 -29 16 -23 60 10 77 14 7 31 11 38 8 8 -3 40 -5 73 -5z m-1337
-22 c3 -13 6 -108 6 -212 l0 -189 63 7 c34 4 72 10 85 13 18 4 22 1 22 -21 l0
-26 -115 0 -115 0 0 188 c0 103 -3 204 -6 225 -6 36 -6 37 24 37 22 0 31 -5
36 -22z m2726 -4 l0 -26 -84 7 c-46 4 -88 5 -93 2 -4 -3 -7 -39 -5 -81 l4 -76
75 0 c66 0 74 -2 71 -17 -3 -15 -16 -19 -76 -21 l-72 -3 0 -91 0 -91 73 7 c39
3 81 7 92 9 14 1 21 -5 23 -21 l3 -23 -123 3 -123 3 -5 215 c-4 143 -2 217 5
222 5 4 61 8 123 8 l112 0 0 -26z m-3207 -56 c-2 -38 -2 -38 37 -38 54 0 56
-27 3 -32 l-38 -3 -3 -119 c-3 -129 4 -152 45 -141 25 6 32 -12 11 -33 -13
-13 -66 -16 -85 -4 -24 15 -33 66 -33 183 l0 119 -25 0 c-18 0 -23 4 -19 15 4
8 15 15 25 15 13 0 19 7 19 24 0 43 11 57 39 54 23 -3 26 -7 24 -40z m3749 0
l-4 -38 41 0 c30 0 41 -4 41 -15 0 -11 -11 -15 -40 -15 l-40 0 0 -124 c0 -133
6 -150 49 -139 19 5 22 2 19 -13 -4 -23 -47 -39 -82 -30 -38 9 -46 40 -46 182
l0 124 -26 0 c-31 0 -28 23 4 28 17 3 22 10 22 36 0 40 7 48 40 44 22 -3 25
-7 22 -40z m-3979 -50 c39 -20 51 -58 57 -172 5 -108 6 -111 28 -108 24 4 30
-16 10 -36 -33 -33 -98 2 -98 52 0 18 -4 16 -29 -12 -53 -57 -125 -69 -166
-27 -66 65 17 155 155 167 34 3 35 4 31 43 -4 53 -16 73 -48 81 -41 11 -77 -7
-81 -39 -2 -16 1 -34 7 -41 23 -27 -27 -37 -53 -10 -22 22 -20 67 4 89 35 32
133 39 183 13z m1177 -7 c40 -28 48 -66 25 -109 -23 -42 -68 -60 -154 -61 -44
-1 -52 -4 -47 -17 3 -9 6 -21 6 -28 0 -7 11 -25 25 -40 20 -21 33 -26 75 -26
41 0 56 5 75 25 23 22 25 23 25 5 0 -25 -32 -58 -65 -66 -14 -4 -48 -4 -76 -2
-82 8 -129 69 -129 168 0 117 74 188 180 173 19 -3 46 -13 60 -22z m325 0 c91
-51 92 -247 1 -302 -42 -25 -121 -25 -163 1 -82 49 -95 203 -25 281 44 49 120
58 187 20z m925 0 c33 -23 47 -63 34 -97 -15 -45 -52 -64 -133 -71 l-73 -6 6
-31 c10 -51 42 -76 97 -76 36 0 55 6 78 26 31 26 40 19 21 -17 -27 -49 -138
-66 -197 -29 -40 24 -62 66 -70 130 -6 56 15 126 47 155 49 44 139 52 190 16z
m338 14 c41 -12 55 -58 60 -203 l5 -134 -29 4 -29 3 -6 130 c-7 146 -11 163
-44 171 -36 9 -56 2 -79 -29 -18 -25 -21 -45 -24 -153 l-4 -125 -26 3 -27 3
-2 125 c-3 148 -8 174 -29 166 -11 -4 -15 0 -12 17 2 17 11 23 36 25 28 3 34
-1 46 -28 l13 -31 16 25 c10 14 32 30 50 35 32 9 41 9 85 -4z m822 -26 c11
-20 12 -19 41 6 58 48 145 33 169 -31 5 -11 10 -79 11 -150 3 -117 2 -129 -14
-132 -40 -8 -47 14 -47 142 0 137 -10 166 -59 166 -62 0 -95 -82 -89 -219 3
-76 1 -86 -15 -89 -41 -8 -47 13 -47 159 0 132 -1 139 -20 139 -21 0 -25 8
-12 26 19 29 63 20 82 -17z m-3025 -139 c0 -12 -18 -16 -94 -18 -92 -3 -120 5
-106 27 4 8 40 11 103 9 78 -2 97 -6 97 -18z m1265 0 c0 -20 -5 -21 -97 -18
-84 3 -98 6 -101 21 -3 15 7 17 97 17 95 0 101 -1 101 -20z m1270 0 c0 -19 -7
-20 -94 -20 -90 0 -115 7 -101 30 3 6 48 10 101 10 87 0 94 -1 94 -20z m-1930
-385 c0 -66 4 -95 13 -98 6 -2 8 -8 4 -13 -4 -4 -16 -3 -25 2 -13 9 -18 29
-20 99 -3 93 1 120 18 110 6 -3 10 -48 10 -100z m160 54 l0 -39 24 15 c19 13
29 14 45 5 26 -13 27 -34 2 -59 -16 -16 -17 -21 -4 -45 7 -14 18 -26 24 -26 6
0 7 -4 4 -10 -13 -20 -35 -9 -49 25 -18 42 -46 39 -46 -6 0 -19 -5 -29 -15
-29 -12 0 -15 18 -15 103 0 57 3 107 6 110 14 13 24 -6 24 -44z m-867 12 c29
-28 30 -120 3 -150 -21 -23 -74 -36 -105 -26 -19 6 -21 14 -21 107 l0 101 51
-5 c34 -4 58 -12 72 -27z m787 14 c0 -8 -7 -15 -15 -15 -16 0 -20 12 -8 23 11
12 23 8 23 -8z m1798 -3 c2 -7 -3 -12 -12 -12 -9 0 -16 7 -16 16 0 17 22 14
28 -4z m77 -22 c0 -7 9 -16 19 -20 19 -6 19 -7 -2 -12 -19 -5 -22 -13 -22 -57
0 -37 4 -53 15 -57 23 -9 18 -26 -7 -22 -21 3 -23 10 -26 63 -2 32 -8 65 -14
72 -7 9 -7 13 1 13 6 0 11 9 11 21 0 12 5 19 13 17 6 -3 12 -11 12 -18z
m-2575 -31 c0 -5 11 -2 24 6 22 14 25 14 39 0 9 -9 14 -22 11 -30 -9 -22 -24
-18 -24 6 0 14 -5 19 -17 17 -15 -3 -19 -16 -21 -71 -4 -87 -26 -88 -30 -1 -2
32 -8 61 -14 65 -15 10 0 29 17 22 8 -3 15 -9 15 -14z m198 5 c43 -30 18 -74
-42 -74 -27 0 -30 -7 -20 -34 7 -19 55 -21 72 -4 9 9 12 9 12 0 0 -14 -32 -32
-59 -32 -60 0 -85 100 -35 139 32 25 43 26 72 5z m133 6 c10 -6 19 -18 19 -28
-1 -16 -2 -16 -14 1 -16 21 -56 23 -56 2 0 -8 18 -26 40 -40 43 -27 49 -44 24
-69 -30 -31 -118 -7 -97 27 4 7 12 3 21 -11 17 -25 44 -29 62 -7 10 12 6 18
-22 34 -18 11 -39 25 -45 31 -21 17 -15 50 10 60 30 12 35 12 58 0z m140 0
c10 -6 19 -17 19 -25 0 -19 -16 -19 -24 0 -7 19 -56 20 -56 1 0 -8 18 -25 40
-37 42 -24 53 -40 44 -64 -12 -31 -89 -33 -108 -3 -16 26 2 35 20 9 18 -26 57
-25 62 1 2 11 -10 24 -37 38 -31 15 -41 26 -41 45 0 38 42 56 81 35z m229 -76
c0 -95 -17 -97 -22 -1 -4 77 -2 91 13 82 5 -4 9 -40 9 -81z m294 76 c18 -7 26
-17 26 -34 0 -28 -25 -46 -64 -46 -28 0 -34 -18 -14 -38 7 -7 21 -12 33 -12
12 0 26 5 33 12 9 9 12 9 12 0 0 -14 -32 -32 -59 -32 -58 0 -82 90 -36 135 27
28 33 29 69 15z m158 -65 c3 -54 5 -60 26 -63 26 -4 20 -22 -8 -22 -34 0 -50
28 -50 89 0 97 27 94 32 -4z m88 -21 c0 -98 -15 -124 -74 -124 -38 0 -51 12
-41 38 6 15 8 14 16 -5 9 -25 41 -31 56 -10 6 6 11 50 12 95 0 46 4 88 7 93
15 24 24 -10 24 -87z m150 70 c8 -8 15 -32 15 -53 0 -94 -109 -113 -131 -24
-19 75 61 129 116 77z m170 -50 c0 -43 4 -64 12 -64 9 0 9 -3 -1 -12 -10 -11
-15 -9 -25 5 -12 15 -15 15 -26 2 -18 -21 -57 -19 -70 4 -5 11 -10 45 -10 75
0 43 3 56 15 56 12 0 15 -14 15 -64 0 -47 4 -65 15 -70 26 -10 45 22 45 78 0
29 3 56 6 59 16 15 24 -9 24 -69z m164 62 c25 18 31 18 50 -1 14 -14 18 -14
39 -1 21 14 25 14 45 0 19 -13 22 -24 22 -80 0 -48 -3 -65 -12 -62 -8 3 -14
28 -16 67 -2 46 -7 64 -19 68 -25 10 -43 -25 -43 -84 0 -29 -4 -53 -10 -53 -5
0 -10 15 -10 33 0 68 -12 107 -32 107 -23 0 -38 -37 -38 -96 0 -24 -4 -44 -10
-44 -6 0 -10 28 -10 64 0 40 -4 66 -12 68 -6 2 -8 10 -4 17 6 10 12 9 24 -3
15 -13 20 -13 36 0z m294 -2 c42 -29 15 -74 -44 -74 -37 0 -39 -2 -24 -31 12
-22 59 -26 79 -6 10 10 11 9 5 -6 -9 -24 -52 -33 -83 -16 -50 28 -49 112 2
137 31 15 39 14 65 -4z m156 -4 c5 -5 11 -33 14 -62 3 -29 10 -56 16 -60 6 -4
4 -10 -8 -14 -12 -5 -22 -2 -28 10 -8 15 -11 15 -31 1 -27 -19 -51 -19 -66 -1
-18 21 1 51 40 65 46 16 48 14 12 -9 -36 -21 -42 -37 -18 -47 29 -10 56 27 53
71 -3 36 -6 41 -30 44 -25 3 -28 0 -28 -24 0 -27 -1 -28 -17 -10 -17 16 -17
18 6 37 25 20 64 19 85 -1z m166 0 c16 -16 20 -33 20 -81 0 -44 -3 -60 -12
-57 -8 3 -14 28 -16 67 -2 43 -7 64 -18 68 -28 11 -44 -17 -44 -78 0 -46 -3
-59 -15 -59 -12 0 -15 14 -15 65 0 37 -4 65 -10 65 -5 0 -10 5 -10 10 0 6 9
10 20 10 11 0 20 -5 20 -11 0 -5 10 -3 22 5 29 20 34 20 58 -4z m160 -66 c0
-59 -3 -74 -15 -74 -12 0 -15 15 -15 73 0 41 3 77 6 80 16 16 24 -10 24 -79z
m-3346 -340 c216 -452 582 -822 1036 -1048 332 -165 636 -236 1007 -236 376 0
685 72 1013 235 453 225 820 596 1036 1049 34 71 50 96 65 96 23 0 18 -14 -50
-150 -271 -538 -744 -948 -1326 -1147 -118 -40 -322 -87 -455 -105 -122 -15
-438 -15 -560 0 -618 81 -1188 408 -1555 893 -114 150 -238 361 -285 485 -8
20 -6 24 9 24 15 0 31 -25 65 -96z"/>
<path d="M3696 4197 c3 -10 9 -15 12 -12 3 3 0 11 -7 18 -10 9 -11 8 -5 -6z"/>
<path d="M3735 4125 c27 -46 85 -115 97 -115 6 0 -7 19 -28 43 -22 23 -50 56
-63 72 l-23 30 17 -30z"/>
<path d="M3862 3984 c10 -10 20 -16 22 -13 3 3 -5 11 -17 18 -21 13 -21 12 -5
-5z"/>
<path d="M1520 3674 l0 -117 46 6 c81 9 120 74 95 159 -13 43 -53 68 -111 68
l-30 0 0 -116z"/>
<path d="M1915 3506 c-42 -18 -57 -40 -53 -78 7 -79 120 -28 142 65 6 25 4 27
-26 27 -18 -1 -47 -7 -63 -14z"/>
<path d="M3051 3651 c-18 -18 -41 -79 -41 -108 0 -17 83 -17 113 -2 30 16 37
28 37 71 0 27 -5 40 -19 48 -30 16 -69 12 -90 -9z"/>
<path d="M3380 3645 c-22 -23 -25 -37 -28 -113 -3 -97 7 -127 50 -151 37 -21
78 -5 101 39 26 50 20 177 -9 217 -30 40 -81 43 -114 8z"/>
<path d="M4305 3647 c-20 -17 -28 -35 -32 -71 l-6 -49 58 5 c45 4 63 10 77 28
57 70 -28 147 -97 87z"/>
<path d="M3350 3141 c-12 -24 -13 -51 -1 -51 20 0 54 37 48 53 -9 23 -34 21
-47 -2z"/>
<path d="M2380 3124 l0 -96 27 7 c40 10 52 22 59 62 9 49 -11 109 -39 117 -46
12 -47 11 -47 -90z"/>
<path d="M2697 3153 c-13 -12 -7 -53 7 -53 30 0 46 13 46 36 0 18 -5 24 -23
24 -13 0 -27 -3 -30 -7z"/>
<path d="M3494 3135 c-4 -14 -4 -29 -1 -32 3 -3 18 -3 32 1 18 5 25 13 25 31
0 20 -5 25 -25 25 -18 0 -26 -7 -31 -25z"/>
<path d="M3872 3148 c-16 -16 -15 -80 1 -102 21 -29 55 -12 63 30 12 63 -28
108 -64 72z"/>
<path d="M4510 3141 c-16 -30 -12 -41 13 -41 28 0 47 17 47 42 0 25 -46 24
-60 -1z"/>
</g>
</svg>
